<svg xmlns="http://www.w3.org/2000/svg" width="830" height="256" viewBox="0 0 830 256" role="img" aria-labelledby="title desc"><title>Monthly GitHub contributions</title><desc>205 contributions across the 12 displayed months.</desc><rect width="830" height="256" rx="14" fill="#ffffff" stroke="#d0d7de"/><text x="24" y="31" font-family="Arial,sans-serif" font-size="17" font-weight="700" fill="#24292f">Contributions by month</text><text x="24" y="51" font-family="Arial,sans-serif" font-size="12" fill="#57606a">GitHub contribution calendar · last 12 months</text><line x1="49" y1="208" x2="809" y2="208" stroke="#d0d7de"/><rect x="58" y="208" width="33" height="0" rx="3" fill="#2da44e"/><text x="74" y="226" text-anchor="middle" font-family="Arial,sans-serif" font-size="11" fill="#57606a">Oct</text><rect x="120" y="208" width="33" height="0" rx="3" fill="#2da44e"/><text x="136" y="226" text-anchor="middle" font-family="Arial,sans-serif" font-size="11" fill="#57606a">Nov</text><rect x="182" y="208" width="33" height="0" rx="3" fill="#2da44e"/><text x="198" y="226" text-anchor="middle" font-family="Arial,sans-serif" font-size="11" fill="#57606a">Dec</text><rect x="244" y="208" width="33" height="0" rx="3" fill="#2da44e"/><text x="260" y="226" text-anchor="middle" font-family="Arial,sans-serif" font-size="11" fill="#57606a">Jan</text><text x="260" y="242" text-anchor="middle" font-family="Arial,sans-serif" font-size="10" fill="#57606a">2026</text><rect x="306" y="169" width="33" height="39" rx="3" fill="#2da44e"/><text x="322" y="164" text-anchor="middle" font-family="Arial,sans-serif" font-size="11" fill="#24292f">19</text><text x="322" y="226" text-anchor="middle" font-family="Arial,sans-serif" font-size="11" fill="#57606a">Feb</text><rect x="368" y="208" width="33" height="0" rx="3" fill="#2da44e"/><text x="384" y="226" text-anchor="middle" font-family="Arial,sans-serif" font-size="11" fill="#57606a">Mar</text><rect x="430" y="80" width="33" height="128" rx="3" fill="#2da44e"/><text x="446" y="75" text-anchor="middle" font-family="Arial,sans-serif" font-size="11" fill="#24292f">62</text><text x="446" y="226" text-anchor="middle" font-family="Arial,sans-serif" font-size="11" fill="#57606a">Apr</text><rect x="492" y="208" width="33" height="0" rx="3" fill="#2da44e"/><text x="508" y="226" text-anchor="middle" font-family="Arial,sans-serif" font-size="11" fill="#57606a">May</text><rect x="554" y="136" width="33" height="72" rx="3" fill="#2da44e"/><text x="570" y="131" text-anchor="middle" font-family="Arial,sans-serif" font-size="11" fill="#24292f">35</text><text x="570" y="226" text-anchor="middle" font-family="Arial,sans-serif" font-size="11" fill="#57606a">Jun</text><rect x="616" y="187" width="33" height="21" rx="3" fill="#2da44e"/><text x="632" y="182" text-anchor="middle" font-family="Arial,sans-serif" font-size="11" fill="#24292f">10</text><text x="632" y="226" text-anchor="middle" font-family="Arial,sans-serif" font-size="11" fill="#57606a">Jul</text><rect x="678" y="127" width="33" height="81" rx="3" fill="#2da44e"/><text x="694" y="122" text-anchor="middle" font-family="Arial,sans-serif" font-size="11" fill="#24292f">39</text><text x="694" y="226" text-anchor="middle" font-family="Arial,sans-serif" font-size="11" fill="#57606a">Aug</text><rect x="740" y="125" width="33" height="83" rx="3" fill="#2da44e"/><text x="756" y="120" text-anchor="middle" font-family="Arial,sans-serif" font-size="11" fill="#24292f">40</text><text x="756" y="226" text-anchor="middle" font-family="Arial,sans-serif" font-size="11" fill="#57606a">Sep</text></svg>